<svg width="639" height="639" viewBox="0 0 639 639" fill="none" xmlns="http://www.w3.org/2000/svg">
<circle cx="319.5" cy="319.5" r="319.5" fill="#F4D150"/>
<mask id="mask0_34_222" style="mask-type:alpha" maskUnits="userSpaceOnUse" x="0" y="0" width="639" height="639">
<circle cx="319.5" cy="319.5" r="319.5" fill="#FFEDEF"/>
</mask>
<g mask="url(#mask0_34_222)">
<g clip-path="url(#clip0_34_222)">
<path d="M410.305 609.574C386.091 575.942 367.145 510.921 364.903 478.41L249.715 428.803L201.79 609.574H410.305Z" fill="#F9C9B6" stroke="black" stroke-width="6.72632"/>
<mask id="mask1_34_222" style="mask-type:alpha" maskUnits="userSpaceOnUse" x="201" y="428" width="210" height="199">
<path d="M410.305 626.389C386.091 592.758 367.145 510.921 364.903 478.41L249.715 428.803L201.79 626.389H410.305Z" fill="#F9C9B6"/>
</mask>
<g mask="url(#mask1_34_222)">
<g style="mix-blend-mode:multiply">
<ellipse cx="359.858" cy="425.44" rx="99.2132" ry="90.8053" fill="black"/>
</g>
</g>
<mask id="path-6-inside-1_34_222" fill="white">
<path fill-rule="evenodd" clip-rule="evenodd" d="M460.563 326.09C460.517 325.895 460.471 325.699 460.424 325.504C460.377 325.308 460.33 325.113 460.282 324.918L432.713 209.849C432.685 209.731 432.657 209.614 432.629 209.496C432.6 209.379 432.572 209.261 432.544 209.144L432.424 208.644L432.422 208.645C415.239 138.952 344.988 96.0994 275.078 112.849C205.168 129.599 161.964 199.635 178.23 269.547L178.226 269.548L178.431 270.4L206.798 388.802L206.822 388.796C224.651 457.58 294.382 499.681 363.777 483.055C433.172 466.428 476.253 397.299 460.975 327.903L460.996 327.898L460.563 326.09Z"/>
</mask>
<path fill-rule="evenodd" clip-rule="evenodd" d="M460.563 326.09C460.517 325.895 460.471 325.699 460.424 325.504C460.377 325.308 460.33 325.113 460.282 324.918L432.713 209.849C432.685 209.731 432.657 209.614 432.629 209.496C432.6 209.379 432.572 209.261 432.544 209.144L432.424 208.644L432.422 208.645C415.239 138.952 344.988 96.0994 275.078 112.849C205.168 129.599 161.964 199.635 178.23 269.547L178.226 269.548L178.431 270.4L206.798 388.802L206.822 388.796C224.651 457.58 294.382 499.681 363.777 483.055C433.172 466.428 476.253 397.299 460.975 327.903L460.996 327.898L460.563 326.09Z" fill="#F9C9B6"/>
<path d="M460.563 326.09L454.015 327.628L454.018 327.643L454.022 327.657L460.563 326.09ZM460.424 325.504L453.883 327.071L453.883 327.071L460.424 325.504ZM460.282 324.918L453.741 326.485L453.745 326.5L453.748 326.515L460.282 324.918ZM432.713 209.849L426.167 211.399L426.169 211.408L426.171 211.416L432.713 209.849ZM432.629 209.496L439.17 207.929L439.17 207.928L432.629 209.496ZM432.544 209.144L426.002 210.711L426.004 210.72L426.007 210.728L432.544 209.144ZM432.424 208.644L438.965 207.077L437.397 200.532L430.853 202.104L432.424 208.644ZM432.422 208.645L425.891 210.255L427.491 216.746L433.992 215.185L432.422 208.645ZM275.078 112.849L273.511 106.308L275.078 112.849ZM178.23 269.547L179.793 276.089L186.296 274.535L184.781 268.023L178.23 269.547ZM178.226 269.548L176.663 263.005L170.113 264.57L171.686 271.118L178.226 269.548ZM178.431 270.4L184.972 268.833L184.971 268.829L178.431 270.4ZM206.798 388.802L200.257 390.369L201.825 396.911L208.367 395.342L206.798 388.802ZM206.822 388.796L213.333 387.108L211.676 380.715L205.253 382.255L206.822 388.796ZM363.777 483.055L365.344 489.596L363.777 483.055ZM460.975 327.903L459.41 321.361L452.986 322.899L454.406 329.349L460.975 327.903ZM460.996 327.898L462.562 334.44L469.105 332.873L467.537 326.331L460.996 327.898ZM467.111 324.552C467.063 324.347 467.014 324.142 466.965 323.937L453.883 327.071C453.927 327.257 453.971 327.442 454.015 327.628L467.111 324.552ZM466.965 323.937C466.916 323.732 466.866 323.526 466.816 323.321L453.748 326.515C453.793 326.7 453.838 326.885 453.883 327.071L466.965 323.937ZM426.171 211.416L453.741 326.485L466.823 323.351L439.254 208.282L426.171 211.416ZM439.258 208.299C439.229 208.176 439.199 208.053 439.17 207.929L426.088 211.064C426.114 211.175 426.141 211.287 426.167 211.399L439.258 208.299ZM439.17 207.928C439.14 207.805 439.11 207.682 439.081 207.56L426.007 210.728C426.034 210.841 426.061 210.953 426.088 211.064L439.17 207.928ZM425.883 210.211L426.002 210.711L439.085 207.577L438.965 207.077L425.883 210.211ZM433.992 215.185L433.994 215.184L430.853 202.104L430.851 202.104L433.992 215.185ZM438.952 207.034C420.885 133.754 347.019 88.6961 273.511 106.308L276.645 119.39C342.957 103.503 409.593 144.15 425.891 210.255L438.952 207.034ZM273.511 106.308C200.002 123.92 154.575 197.56 171.678 271.071L184.781 268.023C169.353 201.709 210.333 135.278 276.645 119.39L273.511 106.308ZM179.789 276.09L179.793 276.089L176.667 263.005L176.663 263.005L179.789 276.09ZM184.971 268.829L184.767 267.977L171.686 271.118L171.891 271.971L184.971 268.829ZM213.34 387.234L184.972 268.833L171.89 271.967L200.257 390.369L213.34 387.234ZM205.253 382.255L205.23 382.261L208.367 395.342L208.39 395.337L205.253 382.255ZM200.311 390.484C219.059 462.811 292.377 507.078 365.344 489.596L362.21 476.513C296.387 492.284 230.244 452.35 213.333 387.108L200.311 390.484ZM365.344 489.596C438.311 472.113 483.608 399.427 467.544 326.457L454.406 329.349C468.897 395.171 428.033 460.743 362.21 476.513L365.344 489.596ZM459.43 321.356L459.41 321.361L462.541 334.445L462.562 334.44L459.43 321.356ZM454.022 327.657L454.455 329.465L467.537 326.331L467.104 324.523L454.022 327.657Z" fill="black" mask="url(#path-6-inside-1_34_222)"/>
</g>
<rect x="291.331" y="370.739" width="117.711" height="40.3579" rx="6.72632" transform="rotate(-4 291.331 370.739)" fill="black"/>
<path fill-rule="evenodd" clip-rule="evenodd" d="M398.235 363.264L301.851 370.004L304.945 381.782C306.174 386.461 310.55 389.607 315.374 389.286C310.552 389.639 306.657 393.364 306.091 398.168L304.666 410.263L401.05 403.523L397.956 391.744C396.726 387.065 392.35 383.919 387.526 384.241C392.348 383.888 396.244 380.163 396.81 375.359L398.235 363.264Z" fill="white"/>
<path d="M299.434 368.006C293.286 367.564 288.093 372.656 288.527 378.854L290.24 403.354C290.673 409.552 296.524 413.871 302.551 412.577C314.228 410.071 336.555 405.625 352.69 404.497C368.826 403.369 391.554 404.664 403.466 405.521C409.615 405.963 414.807 400.872 414.374 394.673L412.661 370.173C412.227 363.975 406.376 359.656 400.349 360.95C388.673 363.456 366.346 367.902 350.21 369.03C334.075 370.158 311.346 368.863 299.434 368.006Z" stroke="black" stroke-width="6.72632"/>
<path d="M368.266 222.329C377.795 217.845 400.216 213.753 413.668 233.26" stroke="black" stroke-width="6.72632" stroke-linecap="round"/>
<path d="M241.44 264.884C244.922 254.945 257.721 236.087 281.062 240.168" stroke="black" stroke-width="6.72632" stroke-linecap="round"/>
<ellipse cx="282.986" cy="282.026" rx="15.1342" ry="16.8158" transform="rotate(-6.77646 282.986 282.026)" fill="black"/>
<ellipse cx="390.658" cy="265.204" rx="15.1342" ry="16.8158" transform="rotate(-6.27568 390.658 265.204)" fill="black"/>
<path d="M341.724 284.698C345 308.011 359.231 324.69 359.231 324.69C359.231 324.69 354.807 335.5 337.687 334.51" stroke="black" stroke-width="6.72632"/>
<path d="M307.373 81.5373L307.501 81.551L307.63 81.5548C352.477 82.8738 387.339 100.721 412.01 122.502C435.646 143.368 449.761 167.692 454.364 184.27C447.536 188.167 435.842 191.52 420.925 194.27C404.655 197.27 385.12 199.46 365.187 201.022C325.322 204.145 284.152 204.73 264.922 204.312L254.71 204.09L262.792 210.336C266.992 213.581 272.583 215.84 278.496 217.428C284.451 219.028 290.971 220.01 297.214 220.567C303.644 221.142 309.914 221.277 315.107 221.145C297.305 234.869 274.645 245.423 252.303 253.245C226.497 262.28 201.401 267.573 185.327 269.929L181.713 270.458L182.538 274.016C188.167 298.28 198.515 340.695 205.455 369.142C208.534 381.761 210.942 391.632 211.97 395.95C213.794 403.607 219.534 414.523 226.087 424.584C232.128 433.861 239.177 442.894 245.125 448.454L231.945 501.951H182.236C196.257 480.573 199.216 455.871 196.357 429.672C193.263 401.314 183.306 370.809 172.81 340.267C171.777 337.261 170.738 334.254 169.7 331.247C160.142 303.57 150.611 275.969 145.447 249.516C139.727 220.216 139.473 192.795 150.211 168.685C167.596 129.649 198.416 106.981 229.243 94.4894C260.143 81.9682 290.822 79.7737 307.373 81.5373Z" fill="white" stroke="black" stroke-width="6.72632"/>
<path d="M219.389 365.09L220.287 364.122V362.802V306.467V304.585L218.683 303.601C212.404 299.748 204.769 297.64 196.879 297.64C187.395 297.64 178.515 300.578 172.19 306.544C165.794 312.576 162.343 321.396 163.26 332.391C164.152 343.106 167.749 350.992 173.715 356.231C173.225 357.912 173.081 359.723 173.308 361.629C173.962 367.125 176.741 371.085 181.034 373.525C185.127 375.852 190.365 376.674 195.945 376.674C205.158 376.674 213.237 371.718 219.389 365.09Z" stroke="black" stroke-width="6.72632"/>
<path fill-rule="evenodd" clip-rule="evenodd" d="M230.33 332.925C230.45 331.829 230.511 330.716 230.511 329.59C230.511 312.409 214.525 301.003 196.879 301.003C179.234 301.003 164.93 311.933 166.611 332.112C167.547 343.341 171.565 350.73 177.795 355.178C176.805 356.9 176.372 358.923 176.647 361.232C177.705 370.113 185.287 373.31 195.945 373.31C214.619 373.31 229.395 349.689 230.33 332.925Z" fill="#F9C9B6"/>
<path d="M204.312 315.297C197.586 312.214 182.788 310.589 177.407 328.75" stroke="black" stroke-width="6.72632"/>
<path d="M186.655 316.137C190.299 319.22 197.249 328.749 195.904 342.202" stroke="black" stroke-width="6.72632"/>
<path d="M386.01 555.677L386.246 555.732L386.486 555.751C464.05 562.148 510.561 596.6 544.316 644.046H84.7084C112.118 594.705 151.103 563.3 214.308 548.889C241.236 542.749 272.605 539.687 309.41 539.687C325.311 539.687 337.684 542.112 349.425 545.313C353.775 546.499 358.147 547.827 362.62 549.186C370.022 551.436 377.701 553.769 386.01 555.677Z" fill="#77311D" stroke="black" stroke-width="6.72632"/>
<path d="M194.945 552.536L210.336 519.583C210.704 518.796 211.618 518.421 212.437 518.711C276.213 541.286 334.232 539.697 387.999 524.729C388.676 524.541 389.399 524.79 389.814 525.357L413.242 557.396C413.886 558.276 413.558 559.518 412.542 559.917C356.029 582.108 249.987 578.336 195.76 554.761C194.899 554.387 194.548 553.386 194.945 552.536Z" fill="white" stroke="black" stroke-width="6.72632"/>
</g>
<defs>
<clipPath id="clip0_34_222">
<rect width="336.316" height="538.105" fill="white" transform="translate(151.342 72.3085)"/>
</clipPath>
</defs>
</svg>
