<svg width="639" height="639" viewBox="0 0 639 639" fill="none" xmlns="http://www.w3.org/2000/svg">
<circle cx="319.5" cy="319.5" r="319.5" fill="#F9C9B6"/>
<mask id="mask0_34_198" style="mask-type:alpha" maskUnits="userSpaceOnUse" x="0" y="0" width="639" height="639">
<circle cx="319.5" cy="319.5" r="319.5" fill="#F9C9B6"/>
</mask>
<g mask="url(#mask0_34_198)">
<g clip-path="url(#clip0_34_198)">
<path d="M410.305 609.573C386.091 575.942 367.145 510.921 364.903 478.41L249.715 428.803L201.79 609.573H410.305Z" fill="#F9C9B6" stroke="black" stroke-width="6.72632"/>
<mask id="mask1_34_198" style="mask-type:alpha" maskUnits="userSpaceOnUse" x="201" y="428" width="210" height="199">
<path d="M410.305 626.389C386.091 592.758 367.145 510.921 364.903 478.41L249.715 428.803L201.79 626.389H410.305Z" fill="#F9C9B6"/>
</mask>
<g mask="url(#mask1_34_198)">
<g style="mix-blend-mode:multiply">
<ellipse cx="359.858" cy="425.44" rx="99.2132" ry="90.8053" fill="black"/>
</g>
</g>
<mask id="path-6-inside-1_34_198" fill="white">
<path fill-rule="evenodd" clip-rule="evenodd" d="M460.563 326.091C460.517 325.895 460.471 325.699 460.424 325.504C460.377 325.308 460.33 325.113 460.282 324.917L432.713 209.849C432.685 209.732 432.657 209.614 432.628 209.496C432.6 209.378 432.572 209.261 432.543 209.143L432.424 208.644L432.421 208.644C415.239 138.952 344.988 96.0993 275.078 112.849C205.167 129.599 161.964 199.634 178.229 269.547L178.226 269.547L178.431 270.4L206.798 388.801L206.822 388.796C224.651 457.58 294.382 499.681 363.777 483.054C433.172 466.428 476.252 397.299 460.975 327.903L460.996 327.898L460.563 326.091Z"/>
</mask>
<path fill-rule="evenodd" clip-rule="evenodd" d="M460.563 326.091C460.517 325.895 460.471 325.699 460.424 325.504C460.377 325.308 460.33 325.113 460.282 324.917L432.713 209.849C432.685 209.732 432.657 209.614 432.628 209.496C432.6 209.378 432.572 209.261 432.543 209.143L432.424 208.644L432.421 208.644C415.239 138.952 344.988 96.0993 275.078 112.849C205.167 129.599 161.964 199.634 178.229 269.547L178.226 269.547L178.431 270.4L206.798 388.801L206.822 388.796C224.651 457.58 294.382 499.681 363.777 483.054C433.172 466.428 476.252 397.299 460.975 327.903L460.996 327.898L460.563 326.091Z" fill="#F9C9B6"/>
<path d="M460.563 326.091L454.015 327.629L454.018 327.643L454.022 327.658L460.563 326.091ZM460.424 325.504L453.882 327.071L453.883 327.071L460.424 325.504ZM460.282 324.917L453.741 326.485L453.744 326.499L453.748 326.514L460.282 324.917ZM432.713 209.849L426.167 211.399L426.169 211.408L426.171 211.416L432.713 209.849ZM432.628 209.496L426.087 211.063L426.087 211.064L432.628 209.496ZM432.543 209.143L426.002 210.71L426.004 210.719L426.006 210.728L432.543 209.143ZM432.424 208.644L438.965 207.077L437.397 200.532L430.853 202.104L432.424 208.644ZM432.421 208.644L425.891 210.255L427.491 216.746L433.992 215.185L432.421 208.644ZM275.078 112.849L276.645 119.39L275.078 112.849ZM178.229 269.547L179.793 276.089L186.296 274.534L184.781 268.022L178.229 269.547ZM178.226 269.547L176.663 263.005L170.113 264.571L171.686 271.118L178.226 269.547ZM178.431 270.4L184.972 268.833L184.971 268.829L178.431 270.4ZM206.798 388.801L200.257 390.369L201.825 396.911L208.367 395.342L206.798 388.801ZM206.822 388.796L213.333 387.108L211.676 380.715L205.253 382.255L206.822 388.796ZM363.777 483.054L365.344 489.596L363.777 483.054ZM460.975 327.903L459.407 321.362L452.987 322.901L454.406 329.349L460.975 327.903ZM460.996 327.898L462.564 334.439L469.104 332.871L467.537 326.331L460.996 327.898ZM467.111 324.553C467.063 324.348 467.014 324.142 466.965 323.937L453.883 327.071C453.927 327.257 453.971 327.443 454.015 327.629L467.111 324.553ZM466.965 323.937C466.916 323.731 466.866 323.526 466.816 323.32L453.748 326.514C453.793 326.699 453.838 326.885 453.882 327.071L466.965 323.937ZM426.171 211.416L453.741 326.485L466.823 323.35L439.254 208.282L426.171 211.416ZM439.258 208.3C439.229 208.177 439.199 208.053 439.17 207.929L426.087 211.064C426.114 211.175 426.141 211.286 426.167 211.399L439.258 208.3ZM439.17 207.929C439.14 207.805 439.11 207.681 439.08 207.559L426.006 210.728C426.034 210.841 426.061 210.952 426.087 211.063L439.17 207.929ZM425.883 210.211L426.002 210.71L439.085 207.576L438.965 207.077L425.883 210.211ZM433.992 215.185L433.994 215.184L430.853 202.104L430.851 202.104L433.992 215.185ZM438.952 207.034C420.885 133.754 347.019 88.696 273.511 106.308L276.645 119.39C342.957 103.503 409.593 144.15 425.891 210.255L438.952 207.034ZM273.511 106.308C200.002 123.92 154.575 197.56 171.678 271.071L184.781 268.022C169.353 201.709 210.333 135.278 276.645 119.39L273.511 106.308ZM179.79 276.089L179.793 276.089L176.666 263.005L176.663 263.005L179.79 276.089ZM184.971 268.829L184.767 267.977L171.686 271.118L171.891 271.97L184.971 268.829ZM213.34 387.234L184.972 268.833L171.89 271.967L200.257 390.369L213.34 387.234ZM205.253 382.255L205.23 382.261L208.367 395.342L208.39 395.337L205.253 382.255ZM200.311 390.484C219.058 462.81 292.377 507.078 365.344 489.596L362.21 476.513C296.387 492.284 230.244 452.35 213.333 387.108L200.311 390.484ZM365.344 489.596C438.311 472.113 483.608 399.427 467.544 326.457L454.406 329.349C468.897 395.171 428.032 460.743 362.21 476.513L365.344 489.596ZM459.428 321.357L459.407 321.362L462.543 334.444L462.564 334.439L459.428 321.357ZM454.022 327.658L454.455 329.465L467.537 326.331L467.104 324.524L454.022 327.658Z" fill="black" mask="url(#path-6-inside-1_34_198)"/>
</g>
<path d="M363.49 433.856C381.714 430.558 392.39 410.42 388.677 389.903C384.964 369.386 367.907 354.267 349.684 357.565C331.46 360.863 320.784 381.001 324.497 401.518C328.21 422.035 345.267 437.154 363.49 433.856Z" fill="black" stroke="black" stroke-width="6.0388"/>
<mask id="mask2_34_198" style="mask-type:alpha" maskUnits="userSpaceOnUse" x="326" y="360" width="61" height="72">
<ellipse cx="356.587" cy="395.711" rx="29.5917" ry="35.7454" transform="rotate(-10.2582 356.587 395.711)" fill="#171921"/>
</mask>
<g mask="url(#mask2_34_198)">
<ellipse cx="362.07" cy="425.999" rx="33.9757" ry="30.7808" transform="rotate(-10.2582 362.07 425.999)" fill="#FC909F"/>
</g>
<circle cx="281.511" cy="267.416" r="20.1789" transform="rotate(-6.27568 281.511 267.416)" fill="#D2EFF3"/>
<ellipse cx="283.681" cy="282.826" rx="15.1342" ry="22.7013" transform="rotate(-6.77646 283.681 282.826)" fill="black"/>
<circle cx="388.761" cy="252.908" r="20.1789" transform="rotate(-6.27568 388.761 252.908)" fill="#D2EFF3"/>
<ellipse cx="391.302" cy="266.009" rx="15.1342" ry="22.7013" transform="rotate(-6.27568 391.302 266.009)" fill="black"/>
<circle cx="394.33" cy="267.371" r="43.7211" stroke="black" stroke-width="6.72632"/>
<circle cx="281.664" cy="282.505" r="43.7211" stroke="black" stroke-width="6.72632"/>
<path d="M352.291 279.142C352.291 275.574 350.873 272.152 348.35 269.63C345.827 267.107 342.406 265.689 338.838 265.689C335.27 265.689 331.848 267.107 329.325 269.63C326.803 272.152 325.385 275.574 325.385 279.142" stroke="black" stroke-width="6.72632"/>
<path d="M238.784 285.868L188.337 295.117" stroke="black" stroke-width="6.72632"/>
<path d="M368.266 222.329C377.795 217.845 400.216 213.753 413.668 233.26" stroke="black" stroke-width="6.72632" stroke-linecap="round"/>
<path d="M241.44 264.885C244.922 254.946 257.721 236.087 281.062 240.168" stroke="black" stroke-width="6.72632" stroke-linecap="round"/>
<path d="M245.635 254.689L235.296 245.564" stroke="black" stroke-width="6.72632" stroke-linecap="round"/>
<path d="M408.558 223.915L418.897 214.79" stroke="black" stroke-width="6.72632" stroke-linecap="round"/>
<path d="M256.48 245.199L249.675 233.205" stroke="black" stroke-width="6.72632" stroke-linecap="round"/>
<path d="M396.032 217.788L402.837 205.794" stroke="black" stroke-width="6.72632" stroke-linecap="round"/>
<path d="M270.061 239.122L266.36 225.838" stroke="black" stroke-width="6.72632" stroke-linecap="round"/>
<path d="M380.77 216.756L384.471 203.472" stroke="black" stroke-width="6.72632" stroke-linecap="round"/>
<path d="M277.396 201.328C280.57 201.828 280.57 201.831 280.57 201.833L280.569 201.839L280.567 201.851L280.562 201.882C280.558 201.906 280.553 201.934 280.546 201.967C280.534 202.034 280.517 202.122 280.495 202.23C280.45 202.445 280.383 202.742 280.286 203.118C280.091 203.869 279.775 204.936 279.275 206.302C278.275 209.035 276.541 212.958 273.57 217.944C268.24 226.885 258.938 239.229 242.77 254.247C293.168 255.504 335.264 239.268 365.225 222.242C380.966 213.297 393.327 204.151 401.744 197.25C405.95 193.8 409.168 190.915 411.325 188.9C412.404 187.893 413.217 187.104 413.756 186.572C414.026 186.306 414.227 186.103 414.358 185.97C414.424 185.904 414.472 185.854 414.503 185.823L414.535 185.789L414.542 185.783L414.543 185.782L418.379 181.79L419.941 187.103L416.858 188.009C419.941 187.103 419.941 187.103 419.942 187.104L419.943 187.108L419.947 187.122L419.964 187.179L420.029 187.402C420.087 187.6 420.173 187.893 420.285 188.277C420.51 189.045 420.84 190.175 421.262 191.628C422.107 194.535 423.322 198.731 424.801 203.892C427.759 214.214 431.776 228.401 436.011 243.856C444.465 274.707 453.842 310.806 457.356 331.247C463.229 365.414 454.147 391.354 448.776 406.699C447.731 409.682 446.827 412.264 446.201 414.429C446.29 414.505 446.408 414.597 446.562 414.705C447.566 415.417 449.346 416.238 451.919 417.056C456.991 418.667 464.227 419.989 471.967 420.734C479.692 421.478 487.735 421.629 494.395 420.979C497.728 420.654 500.626 420.136 502.929 419.433C505.142 418.757 506.527 417.992 507.275 417.301C507.299 417.156 507.328 416.811 507.244 416.144C507.08 414.839 506.563 413.002 505.669 410.572C504.334 406.945 502.358 402.505 500.046 397.313C499.262 395.552 498.44 393.705 497.591 391.774C490.984 376.742 483.035 357.193 481.303 337.277C479.379 315.147 483.752 296.22 487.682 279.207L487.87 278.396C491.885 261.009 495.225 245.91 491.795 230.608C486.59 207.385 479.489 188.051 468.582 174.158C457.792 160.413 443.158 151.834 422.346 150.256L420.197 150.094L419.532 148.043C409.957 118.497 397.029 99.1911 380.543 87.2194C364.064 75.252 343.624 70.3184 318.427 70.3183C271.869 70.3183 221.732 88.0072 184.107 118.61C146.521 149.181 121.647 192.424 124.902 243.608C128.494 300.094 124.4 342.925 115.169 374.288C106.751 402.886 93.9923 422.155 78.6993 433.394C80.7058 434.419 83.3808 435.72 86.7222 437.21C95.1753 440.978 107.894 445.951 124.85 450.709C157.362 459.831 205.474 468.163 268.98 465.652C254.981 453.628 240.858 439.037 229.675 423.613C216.839 405.912 207.587 386.715 207.316 368.835C206.994 347.602 208.433 292.042 208.877 280.541C209.911 253.81 227.074 233.205 243.413 219.5C251.631 212.607 259.771 207.346 265.852 203.809C268.896 202.038 271.433 200.694 273.217 199.789C274.109 199.337 274.814 198.993 275.3 198.761C275.543 198.645 275.732 198.557 275.862 198.496C275.928 198.466 275.978 198.443 276.014 198.426L276.056 198.407L276.068 198.402L276.072 198.4C276.074 198.399 276.075 198.399 277.396 201.328ZM277.396 201.328L280.57 201.828L281.497 195.952L276.075 198.399L277.396 201.328ZM445.942 414.163C445.946 414.163 445.966 414.186 445.99 414.23C445.95 414.185 445.938 414.163 445.942 414.163Z" fill="#D2EFF3" stroke="black" stroke-width="6.42672"/>
<path d="M420.395 149.66C421.236 157.227 419.891 172.361 417.873 182.451" stroke="black" stroke-width="6.72632"/>
<path d="M342.66 291.359C343.002 297.82 345.515 311.674 352.831 315.401C361.977 320.059 354.807 335.5 337.687 334.51" stroke="black" stroke-width="6.72632"/>
<path d="M220.287 306.467V304.585L218.683 303.601C212.404 299.748 204.769 297.64 196.879 297.64C187.395 297.64 178.515 300.578 172.19 306.544C165.794 312.576 162.343 321.396 163.259 332.391C164.152 343.106 167.749 350.992 173.715 356.231C173.225 357.912 173.08 359.723 173.308 361.629C173.962 367.125 176.741 371.085 181.034 373.526C185.127 375.852 190.365 376.674 195.945 376.674C205.158 376.674 213.237 371.718 219.389 365.09L220.287 364.122V362.802V306.467Z" stroke="black" stroke-width="6.72632"/>
<path fill-rule="evenodd" clip-rule="evenodd" d="M230.329 332.925C230.449 331.829 230.511 330.716 230.511 329.59C230.511 312.409 214.525 301.003 196.879 301.003C179.234 301.003 164.929 311.933 166.611 332.112C167.547 343.341 171.565 350.73 177.795 355.179C176.805 356.9 176.372 358.923 176.647 361.232C177.705 370.113 185.287 373.311 195.945 373.311C214.619 373.311 229.395 349.689 230.329 332.925Z" fill="#F9C9B6"/>
<path d="M204.312 315.297C197.586 312.214 182.788 310.589 177.407 328.75" stroke="black" stroke-width="6.72632"/>
<path d="M186.655 316.137C190.299 319.22 197.249 328.749 195.904 342.201" stroke="black" stroke-width="6.72632"/>
<circle cx="193.382" cy="363.221" r="6.72632" fill="white"/>
<circle cx="195.063" cy="361.54" r="1.68158" fill="#FFEDEF"/>
<path d="M543.765 643.815H84.8461C84.9041 643.697 84.9625 643.578 85.0212 643.458C92.6637 627.894 106.763 599.179 125.114 573.489C135.529 558.908 147.189 545.484 159.652 536.041C172.116 526.597 185.077 521.358 198.244 522.511C223.559 524.726 246.107 538.586 268.744 552.501C270.889 553.82 273.035 555.139 275.184 556.448C299.541 571.292 324.554 585.075 352.063 579.043C361.37 577.003 367.642 572.637 371.589 566.995C375.48 561.434 376.879 554.971 377.121 549.064C377.363 543.149 376.456 537.558 375.515 533.492C375.075 531.591 374.621 529.998 374.258 528.83C380.354 522.695 386.808 519.121 393.471 517.512C400.693 515.769 408.415 516.272 416.539 518.675C432.9 523.515 450.406 535.915 467.49 551.86C498.791 581.073 527.512 621.047 543.765 643.815Z" fill="#9287FF" stroke="black" stroke-width="7.18758"/>
</g>
<defs>
<clipPath id="clip0_34_198">
<rect width="336.316" height="538.105" fill="white" transform="translate(151.342 72.3083)"/>
</clipPath>
</defs>
</svg>
